<svg xmlns="http://www.w3.org/2000/svg" viewBox="0 0 64 64" fill="none">
  <rect width="64" height="64" rx="12" fill="#635BFF"/>
  <path d="M32 18C23.716 18 17 24.716 17 33C17 41.284 23.716 48 32 48C40.284 48 47 41.284 47 33C47 24.716 40.284 18 32 18Z" fill="white" fill-opacity="0.2"/>
  <path d="M32 28.5C30.343 28.5 29 29.843 29 31.5C29 33.157 30.343 34.5 32 34.5C33.657 34.5 35 33.157 35 31.5C35 29.843 33.657 28.5 32 28.5ZM32 26.5C34.761 26.5 37 28.739 37 31.5C37 34.261 34.761 36.5 32 36.5C29.239 36.5 27 34.261 27 31.5C27 28.739 29.239 26.5 32 26.5Z" fill="white"/>
  <path d="M24 33C24 28.582 27.582 25 32 25V23C26.477 23 22 27.477 22 33H24ZM32 41C27.582 41 24 37.418 24 33H22C22 38.523 26.477 43 32 43V41ZM40 33C40 37.418 36.418 41 32 41V43C37.523 43 42 38.523 42 33H40ZM32 25C36.418 25 40 28.582 40 33H42C42 27.477 37.523 23 32 23V25Z" fill="white"/>
  <rect x="28" y="38" width="8" height="3" rx="1" fill="white"/>
</svg>

