<svg xmlns="http://www.w3.org/2000/svg" viewBox="0 0 64 64" fill="none">
  <rect width="64" height="64" rx="12" fill="#3ECF8E"/>
  <path d="M32 18C28.686 18 26 20.686 26 24C26 27.314 28.686 30 32 30C35.314 30 38 27.314 38 24C38 20.686 35.314 18 32 18ZM32 32C26.486 32 22 34.691 22 38V40C22 41.105 22.895 42 24 42H40C41.105 42 42 41.105 42 40V38C42 34.691 37.514 32 32 32Z" fill="white"/>
  <circle cx="48" cy="48" r="8" fill="#1F1F1F"/>
  <path d="M48 44C46.895 44 46 44.895 46 46V46.5858L44.2929 44.8787C43.9024 44.4882 43.2692 44.4882 42.8787 44.8787C42.4882 45.2692 42.4882 45.9024 42.8787 46.2929L44.5858 48H44C42.895 48 42 48.895 42 50C42 51.105 42.895 52 44 52H44.5858L42.8787 53.7071C42.4882 54.0976 42.4882 54.7308 42.8787 55.1213C43.2692 55.5118 43.9024 55.5118 44.2929 55.1213L46 53.4142V54C46 55.105 46.895 56 48 56C49.105 56 50 55.105 50 54V53.4142L51.7071 55.1213C52.0976 55.5118 52.7308 55.5118 53.1213 55.1213C53.5118 54.7308 53.5118 54.0976 53.1213 53.7071L51.4142 52H52C53.105 52 54 51.105 54 50C54 48.895 53.105 48 52 48H51.4142L53.1213 46.2929C53.5118 45.9024 53.5118 45.2692 53.1213 44.8787C52.7308 44.4882 52.0976 44.4882 51.7071 44.8787L50 46.5858V46C50 44.895 49.105 44 48 44Z" fill="white"/>
</svg>

